<mxfile host="65bd71144e">
    <diagram id="DFLYSJPIE1LNaGZZCCKT" name="第 1 页">
        <mxGraphModel dx="608" dy="813" grid="1" gridSize="10" guides="1" tooltips="1" connect="1" arrows="1" fold="1" page="1" pageScale="1" pageWidth="827" pageHeight="1169" math="0" shadow="0">
            <root>
                <mxCell id="0"/>
                <mxCell id="1" parent="0"/>
                <mxCell id="4" value="" style="edgeStyle=none;html=1;" edge="1" parent="1" source="2" target="3">
                    <mxGeometry relative="1" as="geometry"/>
                </mxCell>
                <mxCell id="2" value="按下按键" style="rounded=0;whiteSpace=wrap;html=1;" vertex="1" parent="1">
                    <mxGeometry x="40" y="210" width="70" height="40" as="geometry"/>
                </mxCell>
                <mxCell id="6" value="" style="edgeStyle=none;html=1;" edge="1" parent="1" source="3" target="5">
                    <mxGeometry relative="1" as="geometry"/>
                </mxCell>
                <mxCell id="7" value="是" style="edgeLabel;html=1;align=center;verticalAlign=middle;resizable=0;points=[];" vertex="1" connectable="0" parent="6">
                    <mxGeometry x="0.2645" y="-1" relative="1" as="geometry">
                        <mxPoint x="-9" y="-1" as="offset"/>
                    </mxGeometry>
                </mxCell>
                <mxCell id="13" value="" style="edgeStyle=none;html=1;entryX=0;entryY=0.5;entryDx=0;entryDy=0;" edge="1" parent="1" source="3" target="8">
                    <mxGeometry relative="1" as="geometry">
                        <mxPoint x="242.5" y="360" as="targetPoint"/>
                        <Array as="points">
                            <mxPoint x="243" y="390"/>
                        </Array>
                    </mxGeometry>
                </mxCell>
                <mxCell id="16" value="否" style="edgeLabel;html=1;align=center;verticalAlign=middle;resizable=0;points=[];" vertex="1" connectable="0" parent="13">
                    <mxGeometry x="-0.1556" y="2" relative="1" as="geometry">
                        <mxPoint as="offset"/>
                    </mxGeometry>
                </mxCell>
                <mxCell id="3" value="&lt;div&gt;当前角色&lt;/div&gt;协奏能量满？" style="rhombus;whiteSpace=wrap;html=1;rounded=0;" vertex="1" parent="1">
                    <mxGeometry x="185" y="190" width="115" height="80" as="geometry"/>
                </mxCell>
                <mxCell id="15" style="edgeStyle=none;html=1;exitX=1;exitY=0.5;exitDx=0;exitDy=0;entryX=0;entryY=0.5;entryDx=0;entryDy=0;" edge="1" parent="1" source="5" target="14">
                    <mxGeometry relative="1" as="geometry"/>
                </mxCell>
                <mxCell id="5" value="释放当前角色&lt;div&gt;延奏技能&lt;/div&gt;" style="whiteSpace=wrap;html=1;rounded=0;" vertex="1" parent="1">
                    <mxGeometry x="377.5" y="200" width="92.5" height="60" as="geometry"/>
                </mxCell>
                <mxCell id="8" value="切换到目标角色&lt;div&gt;并发动一次普攻&lt;/div&gt;" style="whiteSpace=wrap;html=1;rounded=0;" vertex="1" parent="1">
                    <mxGeometry x="536" y="360" width="93.75" height="60" as="geometry"/>
                </mxCell>
                <mxCell id="14" value="&lt;div&gt;切换到目标角色&lt;/div&gt;&lt;div&gt;并释放变奏技能&lt;/div&gt;" style="whiteSpace=wrap;html=1;rounded=0;" vertex="1" parent="1">
                    <mxGeometry x="536" y="200" width="93.75" height="60" as="geometry"/>
                </mxCell>
            </root>
        </mxGraphModel>
    </diagram>
    <diagram id="r5B1VDfBqCl3RW6s40cN" name="第 2 页">
        <mxGraphModel dx="862" dy="1152" grid="1" gridSize="10" guides="1" tooltips="1" connect="1" arrows="1" fold="1" page="1" pageScale="1" pageWidth="827" pageHeight="1169" math="0" shadow="0">
            <root>
                <mxCell id="0"/>
                <mxCell id="1" parent="0"/>
                <mxCell id="yz1ngXw0DNdpVbxfTXw6-2" value="" style="edgeStyle=none;html=1;" edge="1" parent="1" source="_3mSh4ofUk3FaTjnpYZ8-1" target="yz1ngXw0DNdpVbxfTXw6-1">
                    <mxGeometry relative="1" as="geometry"/>
                </mxCell>
                <mxCell id="_3mSh4ofUk3FaTjnpYZ8-1" value="A角色在场&lt;div&gt;切换到B&lt;/div&gt;" style="rounded=0;whiteSpace=wrap;html=1;" vertex="1" parent="1">
                    <mxGeometry x="30" y="300" width="80" height="60" as="geometry"/>
                </mxCell>
                <mxCell id="yz1ngXw0DNdpVbxfTXw6-4" value="" style="edgeStyle=none;html=1;" edge="1" parent="1" source="yz1ngXw0DNdpVbxfTXw6-1" target="yz1ngXw0DNdpVbxfTXw6-3">
                    <mxGeometry relative="1" as="geometry"/>
                </mxCell>
                <mxCell id="yz1ngXw0DNdpVbxfTXw6-11" value="是" style="edgeLabel;html=1;align=center;verticalAlign=middle;resizable=0;points=[];" vertex="1" connectable="0" parent="yz1ngXw0DNdpVbxfTXw6-4">
                    <mxGeometry x="-0.0286" relative="1" as="geometry">
                        <mxPoint as="offset"/>
                    </mxGeometry>
                </mxCell>
                <mxCell id="yz1ngXw0DNdpVbxfTXw6-13" value="" style="edgeStyle=none;html=1;" edge="1" parent="1" source="yz1ngXw0DNdpVbxfTXw6-1" target="yz1ngXw0DNdpVbxfTXw6-12">
                    <mxGeometry relative="1" as="geometry"/>
                </mxCell>
                <mxCell id="yz1ngXw0DNdpVbxfTXw6-15" value="否" style="edgeLabel;html=1;align=center;verticalAlign=middle;resizable=0;points=[];" vertex="1" connectable="0" parent="yz1ngXw0DNdpVbxfTXw6-13">
                    <mxGeometry x="-0.1333" y="-1" relative="1" as="geometry">
                        <mxPoint as="offset"/>
                    </mxGeometry>
                </mxCell>
                <mxCell id="yz1ngXw0DNdpVbxfTXw6-1" value="A是否正在&lt;div&gt;执行动作？&lt;/div&gt;" style="rhombus;whiteSpace=wrap;html=1;rounded=0;" vertex="1" parent="1">
                    <mxGeometry x="190" y="290" width="100" height="80" as="geometry"/>
                </mxCell>
                <mxCell id="yz1ngXw0DNdpVbxfTXw6-8" value="" style="edgeStyle=none;html=1;" edge="1" parent="1" source="yz1ngXw0DNdpVbxfTXw6-3" target="yz1ngXw0DNdpVbxfTXw6-7">
                    <mxGeometry relative="1" as="geometry"/>
                </mxCell>
                <mxCell id="yz1ngXw0DNdpVbxfTXw6-3" value="B进场" style="whiteSpace=wrap;html=1;rounded=0;" vertex="1" parent="1">
                    <mxGeometry x="360" y="300" width="80" height="60" as="geometry"/>
                </mxCell>
                <mxCell id="yz1ngXw0DNdpVbxfTXw6-10" value="" style="edgeStyle=none;html=1;" edge="1" parent="1" source="yz1ngXw0DNdpVbxfTXw6-7" target="yz1ngXw0DNdpVbxfTXw6-9">
                    <mxGeometry relative="1" as="geometry"/>
                </mxCell>
                <mxCell id="yz1ngXw0DNdpVbxfTXw6-7" value="A继续执行完动作" style="whiteSpace=wrap;html=1;rounded=0;" vertex="1" parent="1">
                    <mxGeometry x="500" y="300" width="100" height="60" as="geometry"/>
                </mxCell>
                <mxCell id="yz1ngXw0DNdpVbxfTXw6-9" value="A退场" style="whiteSpace=wrap;html=1;rounded=0;" vertex="1" parent="1">
                    <mxGeometry x="670" y="300" width="80" height="60" as="geometry"/>
                </mxCell>
                <mxCell id="yz1ngXw0DNdpVbxfTXw6-14" style="edgeStyle=none;html=1;exitX=1;exitY=0.5;exitDx=0;exitDy=0;entryX=0.5;entryY=0;entryDx=0;entryDy=0;" edge="1" parent="1" source="yz1ngXw0DNdpVbxfTXw6-12" target="yz1ngXw0DNdpVbxfTXw6-9">
                    <mxGeometry relative="1" as="geometry">
                        <Array as="points">
                            <mxPoint x="710" y="170"/>
                        </Array>
                    </mxGeometry>
                </mxCell>
                <mxCell id="yz1ngXw0DNdpVbxfTXw6-12" value="B进场" style="whiteSpace=wrap;html=1;rounded=0;" vertex="1" parent="1">
                    <mxGeometry x="180" y="140" width="120" height="60" as="geometry"/>
                </mxCell>
            </root>
        </mxGraphModel>
    </diagram>
</mxfile>